:FULLY-SPECIFIED
:FORCE-ALL-JOINTS-BE-3DOF
:DEGREES
68
root 6.17394 16.7711 -27.7202 10.4988 2.31452 -4.71674
lfemur -32.7266 8.26966 -14.0341
ltibia 42.872 0 0
lfoot -24.0012 4.28724 0
ltoes 24.8514 0 0
rfemur -14.175 0.131678 21.9236
rtibia 28.151 0 0
rfoot -27.7027 -17.8265 0
rtoes -3.19808 0 0
lowerback -3.94834 3.25782 2.1886
upperback -1.84143 4.28826 0.381684
thorax 0.466579 2.13166 -0.653653
lowerneck -10.1628 -2.90042 3.16884
upperneck -4.56405 -4.14814 1.40187
head 0.220711 -2.09432 -0.214644
lclavicle 1.95082e-15 1.16857e-14 0
lhumerus -42.3415 -9.90547 93.0937
lradius 43.3628 0 0
lwrist 8.44743 0 0
lhand -11.3376 2.67336 0
lfingers 7.12502 0 0
lthumb 14.6952 32.1321 0
rclavicle 1.95082e-15 1.16857e-14 0
rhumerus -38.2137 0.801126 -89.5602
rradius 42.4522 0 0
rwrist 8.45003 0 0
rhand -24.5239 -20.9342 0
rfingers 7.12502 0 0
rthumb 1.97137 -50.9002 0
69
root 6.18582 16.7649 -27.7027 10.5152 2.50303 -4.84706
lfemur -33.3221 8.60173 -13.757
ltibia 43.3072 0 0
lfoot -23.4588 4.28655 0
ltoes 24.3552 0 0
rfemur -14.0446 -0.173476 22.0412
rtibia 28.0431 0 0
rfoot -27.7329 -17.7781 0
rtoes -3.89124 0 0
lowerback -3.8615 3.30311 2.30426
upperback -1.84631 4.34565 0.392068
thorax 0.421162 2.15982 -0.709273
lowerneck -10.1947 -2.9666 3.17907
upperneck -4.64052 -4.23598 1.4115
head 0.201023 -2.13905 -0.215552
lclavicle 7.39601e-16 1.17123e-14 0
lhumerus -42.3865 -9.75252 92.9322
lradius 43.5115 0 0
lwrist 8.53452 0 0
lhand -11.3095 2.63517 0
lfingers 7.12502 0 0
lthumb 14.7223 32.092 0
rclavicle 7.39601e-16 1.17123e-14 0
rhumerus -38.1185 1.08288 -89.5526
rradius 42.6231 0 0
rwrist 8.32786 0 0
rhand -24.4181 -20.9652 0
rfingers 7.12502 0 0
rthumb 2.07355 -50.9306 0
70
root 6.19729 16.7589 -27.6859 10.531 2.68515 -4.97297
lfemur -33.8975 8.92256 -13.4892
ltibia 43.7276 0 0
lfoot -22.9347 4.28589 0
ltoes 23.8758 0 0
rfemur -13.9187 -0.468304 22.1549
rtibia 27.9389 0 0
rfoot -27.762 -17.7313 0
rtoes -4.56094 0 0
lowerback -3.77761 3.34687 2.41601
upperback -1.85103 4.4011 0.402101
thorax 0.377281 2.18703 -0.763011
lowerneck -10.2256 -3.03054 3.18895
upperneck -4.71439 -4.32084 1.42082
head 0.182002 -2.18227 -0.216429
lclavicle -4.30627e-16 1.1738e-14 0
lhumerus -42.43 -9.60475 92.7761
lradius 43.6553 0 0
lwrist 8.61866 0 0
lhand -11.2824 2.59826 0
lfingers 7.12502 0 0
lthumb 14.7484 32.0532 0
rclavicle -4.30627e-16 1.1738e-14 0
rhumerus -38.0264 1.35509 -89.5452
rradius 42.7882 0 0
rwrist 8.20983 0 0
rhand -24.3159 -20.9952 0
rfingers 7.12502 0 0
rthumb 2.17227 -50.9599 0
71
root 6.20831 16.7531 -27.6697 10.5462 2.85991 -5.09379
lfemur -34.4496 9.23042 -13.2323
ltibia 44.131 0 0
lfoot -22.4318 4.28525 0
ltoes 23.4158 0 0
rfemur -13.7978 -0.751217 22.2639
rtibia 27.8389 0 0
rfoot -27.79 -17.6864 0
rtoes -5.20358 0 0
lowerback -3.6971 3.38887 2.52324
upperback -1.85556 4.45431 0.411729
thorax 0.335174 2.21313 -0.814578
lowerneck -10.2553 -3.0919 3.19844
upperneck -4.78528 -4.40228 1.42975
head 0.163749 -2.22374 -0.21727
lclavicle -1.55356e-15 1.17626e-14 0
lhumerus -42.4718 -9.46294 92.6264
lradius 43.7932 0 0
lwrist 8.6994 0 0
lhand -11.2563 2.56285 0
lfingers 7.12502 0 0
lthumb 14.7735 32.016 0
rclavicle -1.55356e-15 1.17626e-14 0
rhumerus -37.938 1.6163 -89.5381
rradius 42.9466 0 0
rwrist 8.09656 0 0
rhand -24.2178 -21.0239 0
rfingers 7.12502 0 0
rthumb 2.267 -50.9881 0
72
root 6.21879 16.7476 -27.6543 10.5607 3.02634 -5.20884
lfemur -34.9753 9.52359 -12.9877
ltibia 44.5152 0 0
lfoot -21.9529 4.28464 0
ltoes 22.9778 0 0
rfemur -13.6827 -1.02063 22.3678
rtibia 27.7436 0 0
rfoot -27.8166 -17.6436 0
rtoes -5.81555 0 0
lowerback -3.62044 3.42885 2.62536
upperback -1.85987 4.50499 0.420897
thorax 0.295076 2.23799 -0.863683
lowerneck -10.2835 -3.15032 3.20747
upperneck -4.85279 -4.47982 1.43826
head 0.146367 -2.26323 -0.218071
lclavicle -2.6229e-15 1.17861e-14 0
lhumerus -42.5115 -9.32791 92.4838
lradius 43.9245 0 0
lwrist 8.77628 0 0
lhand -11.2316 2.52913 0
lfingers 7.12502 0 0
lthumb 14.7974 31.9805 0
rclavicle -2.6229e-15 1.17861e-14 0
rhumerus -37.8539 1.86505 -89.5314
rradius 43.0975 0 0
rwrist 7.9887 0 0
rhand -24.1244 -21.0513 0
rfingers 7.12502 0 0
rthumb 2.35721 -51.0149 0
73
root 6.22869 16.7425 -27.6398 10.5744 3.18344 -5.31745
lfemur -35.4716 9.80034 -12.7567
ltibia 44.8778 0 0
lfoot -21.5008 4.28407 0
ltoes 22.5643 0 0
rfemur -13.574 -1.27494 22.4658
rtibia 27.6537 0 0
rfoot -27.8417 -17.6032 0
rtoes -6.39323 0 0
lowerback -3.54807 3.4666 2.72175
upperback -1.86394 4.55282 0.429551
thorax 0.257225 2.26146 -0.910038
lowerneck -10.3101 -3.20548 3.21599
upperneck -4.91652 -4.55303 1.44629
head 0.129959 -2.30051 -0.218828
lclavicle -3.63233e-15 1.18083e-14 0
lhumerus -42.549 -9.20044 92.3492
lradius 44.0485 0 0
lwrist 8.84886 0 0
lhand -11.2082 2.4973 0
lfingers 7.12502 0 0
lthumb 14.8199 31.9471 0
rclavicle -3.63233e-15 1.18083e-14 0
rhumerus -37.7745 2.09986 -89.525
rradius 43.2399 0 0
rwrist 7.88689 0 0
rhand -24.0362 -21.0771 0
rfingers 7.12502 0 0
rthumb 2.44237 -51.0402 0
74
root 6.23794 16.7376 -27.6262 10.5871 3.33023 -5.41893
lfemur -35.9353 10.0589 -12.5409
ltibia 45.2167 0 0
lfoot -21.0784 4.28353 0
ltoes 22.1779 0 0
rfemur -13.4725 -1.51258 22.5574
rtibia 27.5697 0 0
rfoot -27.8652 -17.5655 0
rtoes -6.93302 0 0
lowerback -3.48045 3.50187 2.81182
upperback -1.86775 4.59751 0.437638
thorax 0.221856 2.28338 -0.953351
lowerneck -10.335 -3.25702 3.22396
upperneck -4.97606 -4.62143 1.45379
head 0.114628 -2.33534 -0.219534
lclavicle -4.57556e-15 1.1829e-14 0
lhumerus -42.5841 -9.08133 92.2234
lradius 44.1643 0 0
lwrist 8.91668 0 0
lhand -11.1863 2.46756 0
lfingers 7.12502 0 0
lthumb 14.841 31.9158 0
rclavicle -4.57556e-15 1.1829e-14 0
rhumerus -37.7003 2.31927 -89.5191
rradius 43.373 0 0
rwrist 7.79175 0 0
rhand -23.9539 -21.1013 0
rfingers 7.12502 0 0
rthumb 2.52194 -51.0638 0
75
root 6.24648 16.7332 -27.6137 10.5989 3.46574 -5.51261
lfemur -36.3634 10.2976 -12.3417
ltibia 45.5295 0 0
lfoot -20.6884 4.28304 0
ltoes 21.8212 0 0
rfemur -13.3788 -1.73195 22.642
rtibia 27.4922 0 0
rfoot -27.8869 -17.5306 0
rtoes -7.43132 0 0
lowerback -3.41802 3.53443 2.89497
upperback -1.87126 4.63877 0.445103
thorax 0.189207 2.30363 -0.993335
lowerneck -10.358 -3.30459 3.23131
upperneck -5.03103 -4.68457 1.46072
head 0.100474 -2.36749 -0.220187
lclavicle -5.44626e-15 1.18481e-14 0
lhumerus -42.6165 -8.97138 92.1073
lradius 44.2713 0 0
lwrist 8.97928 0 0
lhand -11.1661 2.4401 0
lfingers 7.12502 0 0
lthumb 14.8604 31.887 0
rclavicle -5.44626e-15 1.18481e-14 0
rhumerus -37.6318 2.52181 -89.5136
rradius 43.4959 0 0
rwrist 7.70393 0 0
rhand -23.8778 -21.1236 0
rfingers 7.12502 0 0
rthumb 2.59539 -51.0856 0
